<?xml version="1.0" standalone="no"?>
<!DOCTYPE svg PUBLIC "-//W3C//DTD SVG 20010904//EN"
 "http://www.w3.org/TR/2001/REC-SVG-20010904/DTD/svg10.dtd">
<svg version="1.0" xmlns="http://www.w3.org/2000/svg"
 width="2808.000000pt" height="2808.000000pt" viewBox="0 0 2808.000000 2808.000000"
 preserveAspectRatio="xMidYMid meet">
<metadata>
Created by potrace 1.14, written by Peter Selinger 2001-2017
</metadata>
<g transform="translate(0.000000,2808.000000) scale(0.100000,-0.100000)"
fill="#000000" stroke="none">
<path d="M0 14040 l0 -14040 14040 0 14040 0 0 14040 0 14040 -14040 0 -14040
0 0 -14040z m11267 2023 c-2 -5626 -6 -7409 -15 -7508 -67 -729 -168 -1204
-359 -1685 -491 -1238 -1458 -1957 -2913 -2164 -532 -76 -1196 -87 -1815 -31
-167 16 -501 61 -517 71 -4 3 -8 605 -8 1338 l0 1333 58 -13 c256 -61 523 -88
882 -88 255 0 314 3 437 22 384 60 653 177 859 374 223 214 357 505 431 938
17 100 18 440 20 7448 l3 7342 1470 0 1470 0 -3 -7377z m6968 7367 c842 -45
1527 -205 2077 -484 314 -159 529 -315 779 -565 252 -253 409 -469 570 -786
261 -515 408 -1117 471 -1925 18 -230 18 -1562 0 -1790 -59 -757 -194 -1296
-451 -1807 -155 -308 -303 -516 -525 -738 -230 -230 -460 -391 -763 -537 -192
-92 -192 -95 -5 -167 282 -110 587 -284 799 -455 694 -561 1099 -1437 1217
-2631 33 -333 38 -566 33 -1700 -4 -1172 -6 -1220 -52 -1565 -119 -881 -393
-1572 -852 -2145 -113 -142 -358 -387 -498 -499 -614 -489 -1343 -753 -2380
-863 -145 -15 -401 -17 -2722 -20 l-2563 -4 0 9346 0 9345 2338 0 c1445 0
2410 -4 2527 -10z"/>
<path d="M16300 18299 l0 -2470 718 4 c605 3 733 6 821 20 230 37 383 83 556
168 395 193 646 547 750 1062 56 275 58 313 62 1147 3 523 1 827 -7 935 -41
587 -182 976 -450 1246 -203 205 -462 314 -825 349 -65 6 -422 10 -867 10
l-758 0 0 -2471z"/>
<path d="M16300 10290 l0 -2871 988 4 c960 3 990 4 1097 25 289 56 491 145
662 290 249 212 399 604 443 1157 8 97 10 497 8 1300 -4 1029 -6 1176 -22
1300 -59 476 -165 808 -332 1043 -64 88 -204 232 -285 293 -251 186 -569 287
-1004 319 -77 5 -458 10 -847 10 l-708 0 0 -2870z"/>
</g>
</svg>
